<svg width="51" height="49" viewBox="0 0 51 49" fill="none" xmlns="http://www.w3.org/2000/svg">
<path d="M25.3218 0C-3.6761 0.607458 -9.71002 39.5178 17.4146 48.8508C18.6804 49.0872 19.1531 48.2942 19.1531 47.6359V43.3659C12.0619 44.8935 10.5623 40.0185 10.5623 40.0185C10.0871 38.4925 9.07482 37.1904 7.7131 36.3535C5.42052 34.798 7.8961 34.8234 7.8961 34.8234C8.70713 34.9294 9.48226 35.2231 10.16 35.681C10.8376 36.139 11.3992 36.7487 11.8001 37.4616C12.5191 38.7132 13.7006 39.6325 15.0904 40.0218C16.4803 40.4111 17.9675 40.2393 19.2319 39.5432C19.3641 38.2724 19.9309 37.0905 20.8408 36.1959C15.1729 35.5605 9.24065 33.4 9.24065 23.8052C9.20691 21.3055 10.154 18.8921 11.8789 17.0825C11.0794 14.9038 11.1735 12.4974 12.1407 10.3878C12.1407 10.3878 14.2757 9.72696 19.1557 13.0235C23.3335 11.8918 27.7371 11.8918 31.9149 13.0235C36.7644 9.78033 38.8994 10.3852 38.8994 10.3852C39.8271 12.4897 39.9109 14.8662 39.1357 17.0292C40.862 18.8377 41.8086 21.252 41.7714 23.7519C41.7714 33.3746 35.8138 35.5096 30.1459 36.1171C32.7841 37.515 31.6759 46.5023 31.8335 47.6105C31.8335 48.2688 32.2809 49.0592 33.6 48.8229C60.6484 39.5712 54.3196 0.607458 25.3218 0Z" fill="#656565"/>
</svg>
